<?xml version="1.0" encoding="UTF-8" standalone="no"?>
<!-- Uploaded to: SVG Repo, www.svgrepo.com, Generator: SVG Repo Mixer Tools -->

<svg
   fill="#000000"
   width="800px"
   height="800px"
   viewBox="0 0 24 24"
   role="img"
   version="1.1"
   id="svg1"
   sodipodi:docname="openstreetmap-svgrepo-com.svg"
   inkscape:version="1.4.2 (f4327f4, 2025-05-13)"
   xmlns:inkscape="http://www.inkscape.org/namespaces/inkscape"
   xmlns:sodipodi="http://sodipodi.sourceforge.net/DTD/sodipodi-0.dtd"
   xmlns="http://www.w3.org/2000/svg"
   xmlns:svg="http://www.w3.org/2000/svg">
  <defs
     id="defs1">
    <filter
       inkscape:collect="always"
       style="color-interpolation-filters:sRGB"
       id="filter12"
       x="-0.12035937"
       y="-0.10299491"
       width="1.2391314"
       height="1.205027">
      <feGaussianBlur
         inkscape:collect="always"
         stdDeviation="0.41887336"
         id="feGaussianBlur12" />
    </filter>
    <filter
       inkscape:collect="always"
       style="color-interpolation-filters:sRGB"
       id="filter13"
       x="-0.083354987"
       y="-0.09563678"
       width="1.168148"
       height="1.1945227">
      <feGaussianBlur
         inkscape:collect="always"
         stdDeviation="0.33575042"
         id="feGaussianBlur13" />
    </filter>
  </defs>
  <sodipodi:namedview
     id="namedview1"
     pagecolor="#ffffff"
     bordercolor="#000000"
     borderopacity="0.25"
     inkscape:showpageshadow="2"
     inkscape:pageopacity="0.0"
     inkscape:pagecheckerboard="0"
     inkscape:deskcolor="#d1d1d1"
     inkscape:zoom="0.72301668"
     inkscape:cx="504.82929"
     inkscape:cy="373.43537"
     inkscape:window-width="1920"
     inkscape:window-height="1057"
     inkscape:window-x="-8"
     inkscape:window-y="-8"
     inkscape:window-maximized="1"
     inkscape:current-layer="g2" />
  <title
     id="title1">OpenStreetMap icon</title>
  <g
     id="g2">
    <g
       id="g3">
      <rect
         style="opacity:1;fill:#ffffff;stroke:#cccccc;stroke-width:0.0941524;stroke-linecap:round"
         id="rect1"
         width="23.953016"
         height="23.953016"
         x="0.04707621"
         y="-9.2340037e-05" />
      <g
         id="g1"
         transform="matrix(0.95893541,0,0,0.95893541,0.96870583,0.0161791)">
        <text
           xml:space="preserve"
           style="font-style:normal;font-variant:normal;font-weight:normal;font-stretch:normal;font-size:5.99654px;line-height:1.25;font-family:'Bauhaus 93';-inkscape-font-specification:'Bauhaus 93, ';text-align:start;text-decoration-color:#000000;letter-spacing:0px;word-spacing:0px;writing-mode:lr-tb;direction:ltr;text-anchor:start;white-space:pre;opacity:1;fill:#800000;stroke:none;stroke-width:0.505086;stroke-linecap:round"
           x="11.347033"
           y="9.9902086"
           id="text14"><tspan
             sodipodi:role="line"
             id="tspan14"
             style="font-style:normal;font-variant:normal;font-weight:normal;font-stretch:normal;font-size:5.99654px;font-family:'Bauhaus 93';-inkscape-font-specification:'Bauhaus 93, ';fill:#800000;stroke:none;stroke-width:0.505086"
             x="11.347033"
             y="9.9902086">PNG</tspan></text>
        <path
           d="M 2.9784952,23.57282 C 2.638108,23.486756 2.4621124,23.34654 1.5560251,22.443354 0.47684306,21.367073 0.40818542,21.261669 0.41205346,20.700804 c 0,-0.623721 -0.18953375,-0.400342 3.25688604,-3.854498 3.4812322,-3.488968 3.3023356,-3.337147 3.9299243,-3.335213 0.2920367,0 0.3655294,0.01547 0.5995456,0.135381 L 8.4662708,13.781855 10.152734,12.095392 9.9419261,11.763707 C 9.5309477,11.123548 9.1441441,10.18845 8.9691155,9.4148426 A 7.4043874,7.4043874 0 0 1 10.399321,3.1873051 c 2.407853,-3.01706784 6.729416,-3.68623803 9.921513,-1.5356102 1.75222,1.1778169 2.891357,2.9967607 3.218205,5.1386855 0.06769,0.4515932 0.06769,1.5269071 0,2.0055765 a 7.3047854,7.3047854 0 0 1 -2.132255,4.2567731 6.4905639,6.4905639 0 0 1 -1.878898,1.354779 c -0.927362,0.467066 -1.716441,0.686577 -2.785952,0.776509 -1.521105,0.126678 -3.210471,-0.294938 -4.502394,-1.124632 l -0.331685,-0.210807 -1.686463,1.686463 0.135381,0.270762 c 0.120877,0.23305 0.135382,0.305576 0.135382,0.596645 0.0029,0.629523 0.150853,0.451594 -3.312973,3.915419 -2.6699117,2.665077 -3.0808905,3.059616 -3.2858964,3.153416 -0.2620594,0.120877 -0.6672361,0.165359 -0.9138235,0.102503 z M 17.302798,13.884358 a 6.2130324,6.2130324 0 0 0 4.451143,-3.394201 C 23.09905,7.6867976 22.19393,4.3921983 19.600412,2.6496482 18.98346,2.2338344 18.121855,1.8818431 17.311501,1.7193856 16.749669,1.6062455 15.562183,1.6188166 14.977142,1.7435607 a 6.3754899,6.3754899 0 0 0 -2.371106,1.0288976 c -0.429352,0.3046078 -1.13817,1.0134254 -1.437942,1.4379423 a 6.173385,6.173385 0 0 0 0.367463,7.6461394 6.1946592,6.1946592 0 0 0 3.772302,2.065531 c 0.492208,0.07543 1.491128,0.05609 1.996873,-0.03578 z m -3.614679,7.132658 a 78.298713,78.298713 0 0 1 -2.123552,-0.629523 c -0.02418,-0.02708 1.16718,-4.250972 1.215531,-4.302223 0.02224,-0.02514 4.102052,1.113995 4.268378,1.195224 0.05995,0.02514 -0.003,0.278497 -0.50768,2.032652 a 385.36563,385.36563 0 0 0 -0.614051,2.162232 c -0.02418,0.08413 -0.06672,0.150853 -0.0938,0.150853 -0.02708,-0.0029 -0.994085,-0.277531 -2.145793,-0.610182 z m 2.81593,0.506712 c 0,-0.05125 1.18652,-4.19005 1.204893,-4.203587 0.04545,-0.03288 4.181346,-1.189421 4.197786,-1.171048 0.01838,0.01838 -1.159443,4.193918 -1.189421,4.216158 -0.01934,0.01838 -3.989879,1.151708 -4.118491,1.177817 -0.05222,0.01064 -0.09477,0 -0.09477,-0.01838 z M 9.6334506,19.675774 c 0.8180904,-0.823891 1.5462474,-1.573323 1.6187734,-1.670991 0.165358,-0.210808 0.391638,-0.707851 0.456428,-0.981514 0.02514,-0.114108 0.05125,-0.340387 0.05609,-0.504779 l 0.01064,-0.296871 0.175995,-0.04932 c 0.0996,-0.02708 0.186633,-0.04255 0.195336,-0.03288 0.02224,0.02418 -1.16718,4.178445 -1.204893,4.216159 -0.01934,0.01547 -0.654665,0.205973 -1.4157015,0.421615 l -1.3779877,0.391639 1.4862928,-1.491127 z m 8.0155364,-2.959047 a 1.3257693,1.3257693 0 0 1 -0.05705,-0.18083 l -0.04255,-0.150854 0.150853,-0.02708 c 1.294825,-0.219512 2.684417,-0.82776 3.779071,-1.656487 0.154722,-0.120876 0.243686,-0.165358 0.256257,-0.129579 0.05222,0.159556 0.263027,0.918659 0.256258,0.927362 -0.03288,0.03288 -4.332201,1.239705 -4.343804,1.219398 z M 3.063592,15.459616 c -0.048351,-0.03772 -1.1401036,-3.738457 -1.2222994,-4.148469 -0.015472,-0.08123 0.1411833,-0.04255 2.1022774,0.518317 2.051026,0.584073 2.1196836,0.608248 2.148694,0.715586 0.027077,0.09477 0.010637,0.124744 -0.1208762,0.215644 -0.081229,0.05705 -0.7436299,0.700114 -1.4727546,1.430205 a 61.769629,61.769629 0 0 1 -1.3441424,1.321902 c -0.015472,0 -0.054152,-0.02418 -0.089932,-0.05222 z M 3.8575063,11.226051 C 2.7086996,10.894366 1.7648989,10.623604 1.761998,10.620702 1.746526,10.609102 2.9813961,6.3339522 3.0046044,6.3078429 c 0.021274,-0.021274 4.2761135,1.1710478 4.3215629,1.2106952 0.0087,0.0087 -0.2601254,0.9834481 -0.5976115,2.165133 C 6.1715586,11.637029 6.106769,11.834299 6.0294084,11.830431 5.9810578,11.827482 5.0053459,11.554834 3.8565393,11.225083 Z m 2.8613794,0.52025 c 0.011604,-0.02998 0.2050059,-0.699147 0.429352,-1.483391 l 0.4061438,-1.4273057 0.054152,0.3104099 c 0.089932,0.5376569 0.2562574,1.1488058 0.4486922,1.6835628 0.1025029,0.286234 0.1808306,0.521218 0.1750286,0.527019 -0.00774,0.0058 -0.321047,0.09767 -0.6952794,0.205007 -0.3761665,0.105403 -0.7165536,0.203072 -0.760069,0.21661 -0.056086,0.01548 -0.072526,0.0058 -0.057054,-0.03288 z M 5.1378261,6.304942 C 3.9899865,5.9771259 3.0423177,5.6908912 3.0297467,5.6725181 2.9910663,5.6125635 1.8248535,1.4940725 1.8403257,1.4776333 c 0.025142,-0.024175 4.1678084,1.1642788 4.2074558,1.2048932 0.045449,0.049317 1.2377715,4.2345321 1.2048931,4.231631 L 5.1426611,6.3059089 Z M 7.2149613,4.6484556 6.7130836,2.9020375 6.637657,2.631275 8.2748031,2.1642097 C 9.1779894,1.9079523 9.9419261,1.6855403 9.9767384,1.6729691 10.009617,1.657497 9.8964769,1.8083503 9.7253165,1.9978842 A 8.4410209,8.4410209 0 0 0 7.830946,5.45204 4.2045548,4.2045548 0 0 0 7.7033008,5.9945321 c 0,0.2833335 -0.1112061,-0.024175 -0.4883395,-1.3441425 z"
           id="path1"
           style="fill:#0044aa;stroke-width:0.967009" />
        <path
           style="opacity:0.75;fill:#00aa44;stroke:#cccccc;stroke-width:3.07537;stroke-linecap:round"
           d="M 177.50611,207.39742 C 145.50122,198.11251 112.981,188.57354 105.23896,186.19971 l -14.076443,-4.31607 -1.344998,-4.38925 C 82.230846,152.73612 50.177141,38.494416 50.676952,37.994605 51.202425,37.469132 153.07044,66.380174 189.04177,77.263763 c 3.48245,1.053664 5.48088,2.270917 6.10131,3.71635 2.68959,6.266035 41.78489,143.904707 40.72732,143.384357 -0.0955,-0.047 -26.3594,-7.68214 -58.36429,-16.96705 z"
           id="path2"
           transform="scale(0.03)" />
        <path
           style="opacity:0.75;fill:#00aa44;stroke:#cccccc;stroke-width:3.07537;stroke-linecap:round"
           d="m 271.52243,713.58854 c 0.19812,-0.57319 19.72451,-20.71305 43.392,-44.75525 60.38401,-61.34005 60.98056,-62.00023 66.89442,-74.02963 2.69377,-5.47942 5.78879,-12.67104 6.87782,-15.98137 2.03547,-6.18727 3.95615,-19.72792 3.97035,-27.99075 0.009,-5.11701 0.68776,-5.69879 8.32254,-7.13108 l 3.63338,-0.68162 -0.72389,3.3072 c -1.66413,7.60276 -30.50228,108.6432 -37.7049,132.10688 l -2.91137,9.48425 -8.04226,2.44045 c -4.42324,1.34225 -24.32587,7.11216 -44.22808,12.82203 -19.9022,5.70986 -37.00805,10.6222 -38.01301,10.9163 -1.06203,0.31081 -1.67636,0.0983 -1.467,-0.50741 z"
           id="path3"
           transform="scale(0.03)" />
        <path
           style="opacity:0.75;fill:#00aa44;stroke:#cccccc;stroke-width:3.07537;stroke-linecap:round"
           d="m 555.99022,727.88859 c 0,-2.03967 40.47026,-143.25698 41.2896,-144.07632 1.09423,-1.09422 139.07606,-39.55799 141.90716,-39.55799 0.90437,0 1.64432,0.15308 1.64432,0.34017 0,0.1871 -4.4229,16.36069 -9.82867,35.94132 -16.18511,58.62535 -30.28168,106.88711 -31.42693,107.59491 -0.78769,0.48683 -129.76312,37.43483 -141.87399,40.6431 -1.01719,0.26946 -1.71149,-0.0896 -1.71149,-0.88519 z"
           id="path4"
           transform="scale(0.03)" />
        <path
           style="opacity:0.75;fill:#55ff99;stroke:#cccccc;stroke-width:3.07537;stroke-linecap:round"
           d="m 249.57775,192.42054 c -2.33231,-4.11797 -33.99927,-113.93398 -33.10202,-114.792616 0.91151,-0.872296 110.80093,-32.269329 111.78043,-31.937325 0.4465,0.151344 -3.1986,4.896198 -8.10022,10.54412 -31.58272,36.39136 -52.18262,74.418591 -64.32575,118.744741 -2.19805,8.02355 -3.99645,15.39519 -3.99645,16.38142 0,1.7801 -1.45964,2.4657 -2.25599,1.05966 z"
           id="path6"
           transform="scale(0.03)" />
        <path
           style="opacity:0.75;fill:#55ff99;stroke:#cccccc;stroke-width:3.07537;stroke-linecap:round"
           d="m 218.96662,389.48655 c 6.20082,-22.86514 26.84017,-92.82225 27.42665,-92.96271 0.43936,-0.10523 2.00113,5.75 3.47061,13.01161 3.58475,17.71448 6.82475,29.41394 13.8919,50.16293 3.25958,9.57005 5.73385,17.59275 5.49838,17.82823 -0.64363,0.64362 -47.88782,14.16043 -49.49381,14.16043 -0.96681,0 -1.20866,-0.67049 -0.79373,-2.20049 z"
           id="path7"
           transform="scale(0.03)" />
        <path
           style="opacity:0.75;fill:#55ff99;stroke:#cccccc;stroke-width:3.07537;stroke-linecap:round"
           d="m 594.26155,559.73433 c -0.47207,-1.25242 -1.15099,-3.62361 -1.50871,-5.26931 l -0.65038,-2.9922 9.57224,-1.77257 c 12.9447,-2.39707 36.65247,-9.24772 49.18105,-14.21147 28.57836,-11.32257 51.14375,-23.83257 78.64347,-43.59903 2.64267,-1.89951 5.1411,-3.10728 5.5521,-2.68393 0.88123,0.90773 9.06935,30.57997 8.56766,31.04765 -1.34036,1.24951 -132.40695,38.29424 -145.32554,41.07488 -2.74146,0.59008 -3.29043,0.37304 -4.03189,-1.59402 z"
           id="path8"
           transform="scale(0.03)" />
        <path
           style="opacity:0.75;fill:#87deaa;stroke:#cccccc;stroke-width:3.07537;stroke-linecap:round"
           d="m 93.649699,519.96544 c -0.668704,-0.41648 -2.337346,-4.03385 -3.708091,-8.03859 -6.440509,-18.8165 -39.57486,-131.96414 -39.57486,-135.14078 0,-2.49643 8.144569,-0.43764 81.662592,20.64274 50.71735,14.54257 58.20183,16.87164 61.80588,19.2331 3.42314,2.24292 2.88551,5.61051 -1.41468,8.86132 -2.01712,1.52488 -21.49144,20.37653 -43.27629,41.89256 -54.344486,53.67391 -54.084575,53.4278 -55.494551,52.54965 z"
           id="path9"
           transform="scale(0.03)" />
        <path
           style="opacity:0.75;fill:#b3ff80;stroke:#cccccc;stroke-width:3.07537;stroke-linecap:round"
           d="m 181.90709,390.57107 c -5.91687,-1.61311 -33.86308,-9.55445 -62.10269,-17.64742 -28.239608,-8.09298 -56.026911,-16.04797 -61.749564,-17.67776 l -10.40482,-2.96327 2.380338,-8.90415 c 2.169861,-8.11681 27.439642,-96.13268 36.180681,-126.01906 2.908653,-9.94494 3.999863,-12.46943 5.3899,-12.46943 4.372065,0 144.168845,39.29055 145.877995,40.99971 0.9833,0.98329 -1.35376,9.91444 -17.55021,67.06875 -19.57594,69.07996 -23.35661,80.7724 -26.0663,80.61508 -0.65857,-0.0382 -6.03846,-1.38934 -11.95533,-3.00245 z"
           id="path10"
           transform="scale(0.03)" />
        <path
           style="opacity:0.75;fill:#b3ff80;stroke:#cccccc;stroke-width:3.07537;stroke-linecap:round"
           d="m 483.61858,717.78824 c -55.48248,-15.97942 -95.25715,-27.82385 -96.95154,-28.87105 -1.42994,-0.88375 2.7135,-16.72962 23.12258,-88.42819 14.47975,-50.86843 17.00147,-59.16871 17.97617,-59.16871 2.17988,0 120.55361,33.02024 140.23979,39.11976 l 6.63639,2.0562 -0.60606,3.6174 c -0.97661,5.82913 -7.45549,29.52485 -23.04984,84.302 -18.26653,64.16359 -17.12146,60.65617 -19.76883,60.55299 -1.16704,-0.0455 -22.58643,-5.97667 -47.59866,-13.1804 z"
           id="path11"
           transform="scale(0.03)" />
        <text
           xml:space="preserve"
           style="font-style:normal;font-variant:normal;font-weight:normal;font-stretch:normal;font-size:5.99654px;line-height:1.25;font-family:'Bauhaus 93';-inkscape-font-specification:'Bauhaus 93, ';text-align:start;text-decoration-color:#000000;letter-spacing:0px;word-spacing:0px;writing-mode:lr-tb;direction:ltr;text-anchor:start;white-space:pre;opacity:1;fill:#ff0000;stroke:none;stroke-width:0.505086;stroke-linecap:round"
           x="11.227032"
           y="9.630209"
           id="text11"><tspan
             sodipodi:role="line"
             id="tspan11"
             style="font-style:normal;font-variant:normal;font-weight:normal;font-stretch:normal;font-size:5.99654px;font-family:'Bauhaus 93';-inkscape-font-specification:'Bauhaus 93, ';fill:#ff0000;stroke:none;stroke-width:0.505086"
             x="11.227032"
             y="9.630209">PNG</tspan></text>
        <path
           id="path12"
           style="opacity:1;fill:#000080;stroke:#0000ff;stroke-width:0.0943371;stroke-linecap:round;filter:url(#filter12)"
           d="m 11.383887,13.180957 -2.3215432,2.321484 -0.9639844,2.35084 1.5544336,-1.510957 v -0.748183 l 2.072168,-2.07211 z m -1.731094,3.161367 -6.9535547,6.953496 0.6308203,0.293438 6.6161719,-6.616172 z" />
        <path
           id="path13"
           style="opacity:1;fill:#0066ff;stroke:#5599ff;stroke-width:0.0943371;stroke-linecap:round;filter:url(#filter13)"
           d="M 10.312969,12.344766 8.4131836,14.310527 7.7075391,14.191641 7.5550195,14.662617 h 1.0494727 l 1.9468358,-2.079492 z m -2.6054299,1.846875 -0.7711524,-0.206602 -6.66216795,6.662168 0.15105469,0.826699 z" />
      </g>
    </g>
  </g>
</svg>
