<?xml version="1.0" encoding="UTF-8" standalone="no"?>
<!-- Uploaded to: SVG Repo, www.svgrepo.com, Generator: SVG Repo Mixer Tools -->

<svg
   fill="#000000"
   width="800px"
   height="800px"
   viewBox="0 0 24 24"
   role="img"
   version="1.1"
   id="svg1"
   sodipodi:docname="openstreetmap-svgrepo-com.svg"
   inkscape:version="1.4.2 (f4327f4, 2025-05-13)"
   xmlns:inkscape="http://www.inkscape.org/namespaces/inkscape"
   xmlns:sodipodi="http://sodipodi.sourceforge.net/DTD/sodipodi-0.dtd"
   xmlns="http://www.w3.org/2000/svg"
   xmlns:svg="http://www.w3.org/2000/svg">
  <defs
     id="defs1">
    <filter
       inkscape:collect="always"
       style="color-interpolation-filters:sRGB"
       id="filter12"
       x="-0.12035937"
       y="-0.10299491"
       width="1.2391314"
       height="1.205027">
      <feGaussianBlur
         inkscape:collect="always"
         stdDeviation="0.41887336"
         id="feGaussianBlur12" />
    </filter>
    <filter
       inkscape:collect="always"
       style="color-interpolation-filters:sRGB"
       id="filter13"
       x="-0.083354987"
       y="-0.09563678"
       width="1.168148"
       height="1.1945227">
      <feGaussianBlur
         inkscape:collect="always"
         stdDeviation="0.33575042"
         id="feGaussianBlur13" />
    </filter>
  </defs>
  <sodipodi:namedview
     id="namedview1"
     pagecolor="#ffffff"
     bordercolor="#000000"
     borderopacity="0.25"
     inkscape:showpageshadow="2"
     inkscape:pageopacity="0.0"
     inkscape:pagecheckerboard="0"
     inkscape:deskcolor="#d1d1d1"
     inkscape:zoom="0.18075417"
     inkscape:cx="1886.5401"
     inkscape:cy="-235.12597"
     inkscape:window-width="1920"
     inkscape:window-height="1057"
     inkscape:window-x="-8"
     inkscape:window-y="-8"
     inkscape:window-maximized="1"
     inkscape:current-layer="svg1" />
  <title
     id="title1">OpenStreetMap icon</title>
  <text
     xml:space="preserve"
     style="font-style:normal;font-variant:normal;font-weight:normal;font-stretch:normal;font-size:5.99654px;line-height:1.25;font-family:'Bauhaus 93';-inkscape-font-specification:'Bauhaus 93, ';text-align:start;text-decoration-color:#000000;letter-spacing:0px;word-spacing:0px;writing-mode:lr-tb;direction:ltr;text-anchor:start;white-space:pre;opacity:1;fill:#800000;stroke:none;stroke-width:0.505086;stroke-linecap:round"
     x="11.347033"
     y="9.9902086"
     id="text14"><tspan
       sodipodi:role="line"
       id="tspan14"
       style="font-style:normal;font-variant:normal;font-weight:normal;font-stretch:normal;font-size:5.99654px;font-family:'Bauhaus 93';-inkscape-font-specification:'Bauhaus 93, ';fill:#800000;stroke:none;stroke-width:0.505086"
       x="11.347033"
       y="9.9902086">PNG</tspan></text>
  <path
     d="M2.672 23.969c-.352-.089-.534-.234-1.471-1.168C.085 21.688.014 21.579.018 20.999c0-.645-.196-.414 3.368-3.986 3.6-3.608 3.415-3.451 4.064-3.449.302 0 .378.016.62.14l.277.14 1.744-1.744-.218-.343c-.425-.662-.825-1.629-1.006-2.429a7.657 7.657 0 0 1 1.479-6.44c2.49-3.12 6.959-3.812 10.26-1.588 1.812 1.218 2.99 3.099 3.328 5.314.07.467.07 1.579 0 2.074a7.554 7.554 0 0 1-2.205 4.402 6.712 6.712 0 0 1-1.943 1.401c-.959.483-1.775.71-2.881.803-1.573.131-3.32-.305-4.656-1.163l-.343-.218-1.744 1.744.14.28c.125.241.14.316.14.617.003.651.156.467-3.426 4.049-2.761 2.756-3.186 3.164-3.398 3.261-.271.125-.69.171-.945.106zM17.485 13.95a6.425 6.425 0 0 0 4.603-3.51c1.391-2.899.455-6.306-2.227-8.108-.638-.43-1.529-.794-2.367-.962-.581-.117-1.809-.104-2.414.025a6.593 6.593 0 0 0-2.452 1.064c-.444.315-1.177 1.048-1.487 1.487a6.384 6.384 0 0 0 .38 7.907 6.406 6.406 0 0 0 3.901 2.136c.509.078 1.542.058 2.065-.037zm-3.738 7.376a80.97 80.97 0 0 1-2.196-.651c-.025-.028 1.207-4.396 1.257-4.449.023-.026 4.242 1.152 4.414 1.236.062.026-.003.288-.525 2.102a398.513 398.513 0 0 0-.635 2.236c-.025.087-.069.156-.097.156-.028-.003-1.028-.287-2.219-.631zm2.912.524c0-.053 1.227-4.333 1.246-4.347.047-.034 4.324-1.23 4.341-1.211.019.019-1.199 4.337-1.23 4.36-.02.019-4.126 1.191-4.259 1.218-.054.011-.098 0-.098-.019zm-7.105-1.911c.846-.852 1.599-1.627 1.674-1.728.171-.218.405-.732.472-1.015.026-.118.053-.352.058-.522l.011-.307.182-.051c.103-.028.193-.044.202-.034.023.025-1.207 4.321-1.246 4.36-.02.016-.677.213-1.464.436l-1.425.405 1.537-1.542zm8.289-3.06a1.371 1.371 0 0 1-.059-.187l-.044-.156.156-.028c1.339-.227 2.776-.856 3.908-1.713.16-.125.252-.171.265-.134.054.165.272.95.265.959-.034.034-4.48 1.282-4.492 1.261zm-15.083-1.3c-.05-.039-1.179-3.866-1.264-4.29-.016-.084.146-.044 2.174.536 2.121.604 2.192.629 2.222.74.028.098.011.129-.125.223-.084.059-.769.724-1.523 1.479a63.877 63.877 0 0 1-1.39 1.367c-.016 0-.056-.025-.093-.054zm.821-4.378c-1.188-.343-2.164-.623-2.167-.626-.016-.012 1.261-4.433 1.285-4.46.022-.022 4.422 1.211 4.469 1.252.009.009-.269 1.017-.618 2.239-.576 2.02-.643 2.224-.723 2.22-.05-.003-1.059-.285-2.247-.626zm2.959.538c.012-.031.212-.723.444-1.534l.42-1.476.056.321c.093.556.265 1.188.464 1.741.106.296.187.539.181.545-.008.006-.332.101-.719.212-.389.109-.741.21-.786.224-.058.016-.075.006-.059-.034zM4.905 6.112c-1.187-.339-2.167-.635-2.18-.654-.04-.062-1.246-4.321-1.23-4.338.026-.025 4.31 1.204 4.351 1.246.047.051 1.28 4.379 1.246 4.376L4.91 6.113zm2.148-1.713l-.519-1.806-.078-.28 1.693-.483c.934-.265 1.724-.495 1.76-.508.034-.016-.083.14-.26.336A8.729 8.729 0 0 0 7.69 5.23a4.348 4.348 0 0 0-.132.561c0 .293-.115-.025-.505-1.39z"
     id="path1"
     style="fill:#0044aa" />
  <path
     style="opacity:0.75;fill:#00aa44;stroke:#cccccc;stroke-width:3.07537;stroke-linecap:round"
     d="M 177.50611,207.39742 C 145.50122,198.11251 112.981,188.57354 105.23896,186.19971 l -14.076443,-4.31607 -1.344998,-4.38925 C 82.230846,152.73612 50.177141,38.494416 50.676952,37.994605 51.202425,37.469132 153.07044,66.380174 189.04177,77.263763 c 3.48245,1.053664 5.48088,2.270917 6.10131,3.71635 2.68959,6.266035 41.78489,143.904707 40.72732,143.384357 -0.0955,-0.047 -26.3594,-7.68214 -58.36429,-16.96705 z"
     id="path2"
     transform="scale(0.03)" />
  <path
     style="opacity:0.75;fill:#00aa44;stroke:#cccccc;stroke-width:3.07537;stroke-linecap:round"
     d="m 271.52243,713.58854 c 0.19812,-0.57319 19.72451,-20.71305 43.392,-44.75525 60.38401,-61.34005 60.98056,-62.00023 66.89442,-74.02963 2.69377,-5.47942 5.78879,-12.67104 6.87782,-15.98137 2.03547,-6.18727 3.95615,-19.72792 3.97035,-27.99075 0.009,-5.11701 0.68776,-5.69879 8.32254,-7.13108 l 3.63338,-0.68162 -0.72389,3.3072 c -1.66413,7.60276 -30.50228,108.6432 -37.7049,132.10688 l -2.91137,9.48425 -8.04226,2.44045 c -4.42324,1.34225 -24.32587,7.11216 -44.22808,12.82203 -19.9022,5.70986 -37.00805,10.6222 -38.01301,10.9163 -1.06203,0.31081 -1.67636,0.0983 -1.467,-0.50741 z"
     id="path3"
     transform="scale(0.03)" />
  <path
     style="opacity:0.75;fill:#00aa44;stroke:#cccccc;stroke-width:3.07537;stroke-linecap:round"
     d="m 555.99022,727.88859 c 0,-2.03967 40.47026,-143.25698 41.2896,-144.07632 1.09423,-1.09422 139.07606,-39.55799 141.90716,-39.55799 0.90437,0 1.64432,0.15308 1.64432,0.34017 0,0.1871 -4.4229,16.36069 -9.82867,35.94132 -16.18511,58.62535 -30.28168,106.88711 -31.42693,107.59491 -0.78769,0.48683 -129.76312,37.43483 -141.87399,40.6431 -1.01719,0.26946 -1.71149,-0.0896 -1.71149,-0.88519 z"
     id="path4"
     transform="scale(0.03)" />
  <path
     style="opacity:0.75;fill:#55ff99;stroke:#cccccc;stroke-width:3.07537;stroke-linecap:round"
     d="m 249.57775,192.42054 c -2.33231,-4.11797 -33.99927,-113.93398 -33.10202,-114.792616 0.91151,-0.872296 110.80093,-32.269329 111.78043,-31.937325 0.4465,0.151344 -3.1986,4.896198 -8.10022,10.54412 -31.58272,36.39136 -52.18262,74.418591 -64.32575,118.744741 -2.19805,8.02355 -3.99645,15.39519 -3.99645,16.38142 0,1.7801 -1.45964,2.4657 -2.25599,1.05966 z"
     id="path6"
     transform="scale(0.03)" />
  <path
     style="opacity:0.75;fill:#55ff99;stroke:#cccccc;stroke-width:3.07537;stroke-linecap:round"
     d="m 218.96662,389.48655 c 6.20082,-22.86514 26.84017,-92.82225 27.42665,-92.96271 0.43936,-0.10523 2.00113,5.75 3.47061,13.01161 3.58475,17.71448 6.82475,29.41394 13.8919,50.16293 3.25958,9.57005 5.73385,17.59275 5.49838,17.82823 -0.64363,0.64362 -47.88782,14.16043 -49.49381,14.16043 -0.96681,0 -1.20866,-0.67049 -0.79373,-2.20049 z"
     id="path7"
     transform="scale(0.03)" />
  <path
     style="opacity:0.75;fill:#55ff99;stroke:#cccccc;stroke-width:3.07537;stroke-linecap:round"
     d="m 594.26155,559.73433 c -0.47207,-1.25242 -1.15099,-3.62361 -1.50871,-5.26931 l -0.65038,-2.9922 9.57224,-1.77257 c 12.9447,-2.39707 36.65247,-9.24772 49.18105,-14.21147 28.57836,-11.32257 51.14375,-23.83257 78.64347,-43.59903 2.64267,-1.89951 5.1411,-3.10728 5.5521,-2.68393 0.88123,0.90773 9.06935,30.57997 8.56766,31.04765 -1.34036,1.24951 -132.40695,38.29424 -145.32554,41.07488 -2.74146,0.59008 -3.29043,0.37304 -4.03189,-1.59402 z"
     id="path8"
     transform="scale(0.03)" />
  <path
     style="opacity:0.75;fill:#87deaa;stroke:#cccccc;stroke-width:3.07537;stroke-linecap:round"
     d="m 93.649699,519.96544 c -0.668704,-0.41648 -2.337346,-4.03385 -3.708091,-8.03859 -6.440509,-18.8165 -39.57486,-131.96414 -39.57486,-135.14078 0,-2.49643 8.144569,-0.43764 81.662592,20.64274 50.71735,14.54257 58.20183,16.87164 61.80588,19.2331 3.42314,2.24292 2.88551,5.61051 -1.41468,8.86132 -2.01712,1.52488 -21.49144,20.37653 -43.27629,41.89256 -54.344486,53.67391 -54.084575,53.4278 -55.494551,52.54965 z"
     id="path9"
     transform="scale(0.03)" />
  <path
     style="opacity:0.75;fill:#b3ff80;stroke:#cccccc;stroke-width:3.07537;stroke-linecap:round"
     d="m 181.90709,390.57107 c -5.91687,-1.61311 -33.86308,-9.55445 -62.10269,-17.64742 -28.239608,-8.09298 -56.026911,-16.04797 -61.749564,-17.67776 l -10.40482,-2.96327 2.380338,-8.90415 c 2.169861,-8.11681 27.439642,-96.13268 36.180681,-126.01906 2.908653,-9.94494 3.999863,-12.46943 5.3899,-12.46943 4.372065,0 144.168845,39.29055 145.877995,40.99971 0.9833,0.98329 -1.35376,9.91444 -17.55021,67.06875 -19.57594,69.07996 -23.35661,80.7724 -26.0663,80.61508 -0.65857,-0.0382 -6.03846,-1.38934 -11.95533,-3.00245 z"
     id="path10"
     transform="scale(0.03)" />
  <path
     style="opacity:0.75;fill:#b3ff80;stroke:#cccccc;stroke-width:3.07537;stroke-linecap:round"
     d="m 483.61858,717.78824 c -55.48248,-15.97942 -95.25715,-27.82385 -96.95154,-28.87105 -1.42994,-0.88375 2.7135,-16.72962 23.12258,-88.42819 14.47975,-50.86843 17.00147,-59.16871 17.97617,-59.16871 2.17988,0 120.55361,33.02024 140.23979,39.11976 l 6.63639,2.0562 -0.60606,3.6174 c -0.97661,5.82913 -7.45549,29.52485 -23.04984,84.302 -18.26653,64.16359 -17.12146,60.65617 -19.76883,60.55299 -1.16704,-0.0455 -22.58643,-5.97667 -47.59866,-13.1804 z"
     id="path11"
     transform="scale(0.03)" />
  <text
     xml:space="preserve"
     style="font-style:normal;font-variant:normal;font-weight:normal;font-stretch:normal;font-size:5.99654px;line-height:1.25;font-family:'Bauhaus 93';-inkscape-font-specification:'Bauhaus 93, ';text-align:start;text-decoration-color:#000000;letter-spacing:0px;word-spacing:0px;writing-mode:lr-tb;direction:ltr;text-anchor:start;white-space:pre;opacity:1;fill:#ff0000;stroke:none;stroke-width:0.505086;stroke-linecap:round"
     x="11.227032"
     y="9.630209"
     id="text11"><tspan
       sodipodi:role="line"
       id="tspan11"
       style="font-style:normal;font-variant:normal;font-weight:normal;font-stretch:normal;font-size:5.99654px;font-family:'Bauhaus 93';-inkscape-font-specification:'Bauhaus 93, ';fill:#ff0000;stroke:none;stroke-width:0.505086"
       x="11.227032"
       y="9.630209">PNG</tspan></text>
  <path
     id="path12"
     style="opacity:1;fill:#000080;stroke:#0000ff;stroke-width:0.0943371;stroke-linecap:round;filter:url(#filter12)"
     d="M 11.383887 13.180957 L 9.0623438 15.502441 L 8.0983594 17.853281 L 9.652793 16.342324 L 9.652793 15.594141 L 11.724961 13.522031 L 11.383887 13.180957 z M 9.652793 16.342324 L 2.6992383 23.29582 L 3.3300586 23.589258 L 9.9462305 16.973086 L 9.652793 16.342324 z " />
  <path
     id="path13"
     style="opacity:1;fill:#0066ff;stroke:#5599ff;stroke-width:0.0943371;stroke-linecap:round;filter:url(#filter13)"
     d="M 10.312969 12.344766 L 8.4131836 14.310527 L 7.7075391 14.191641 L 7.5550195 14.662617 L 8.6044922 14.662617 L 10.551328 12.583125 L 10.312969 12.344766 z M 7.7075391 14.191641 L 6.9363867 13.985039 L 0.27421875 20.647207 L 0.42527344 21.473906 L 7.7075391 14.191641 z " />
</svg>
